<svg width="20" height="20" viewBox="0 0 20 20" fill="none" xmlns="http://www.w3.org/2000/svg">
<path d="M10 18C9.77778 18 9.58333 17.9653 9.41667 17.8958C9.25 17.8264 9.09028 17.7153 8.9375 17.5625L2.4375 11.0625C2.28472 10.9097 2.17361 10.75 2.10417 10.5833C2.03472 10.4167 2 10.2222 2 10C2 9.77778 2.03472 9.58333 2.10417 9.41667C2.17361 9.25 2.28264 9.09236 2.43125 8.94375L8.9375 2.4375C9.09028 2.28472 9.25 2.17361 9.41667 2.10417C9.58333 2.03472 9.77778 2 10 2C10.2222 2 10.4167 2.03472 10.5833 2.10417C10.75 2.17361 10.9097 2.28472 11.0625 2.4375L17.5625 8.9375C17.7153 9.09028 17.8264 9.25 17.8958 9.41667C17.9653 9.58333 18 9.77778 18 10C18 10.2222 17.9653 10.4167 17.8958 10.5833C17.8264 10.75 17.7153 10.9097 17.5625 11.0625L11.0563 17.5688C10.9076 17.7174 10.75 17.8264 10.5833 17.8958C10.4167 17.9653 10.2222 18 10 18ZM9.25 10.5H10.75V6H9.25V10.5ZM9.99563 13C10.2069 13 10.3854 12.9285 10.5312 12.7856C10.6771 12.6427 10.75 12.4656 10.75 12.2544C10.75 12.0431 10.6785 11.8646 10.5356 11.7188C10.3927 11.5729 10.2156 11.5 10.0044 11.5C9.79313 11.5 9.61458 11.5715 9.46875 11.7144C9.32292 11.8573 9.25 12.0344 9.25 12.2456C9.25 12.4569 9.32146 12.6354 9.46438 12.7812C9.60729 12.9271 9.78438 13 9.99563 13Z" fill="#E10E0E"/>
</svg>
